<svg id="Layer_1" data-name="Layer 1" xmlns="http://www.w3.org/2000/svg" viewBox="0 0 1173.9 489.13"><defs><style>.cls-1{fill:#a6a2d0;}.cls-2{fill:#fed061;}</style></defs><polygon class="cls-1" points="273.83 145.25 273.83 3.41 300.31 3.41 300.31 124.45 349.48 124.45 349.48 145.25 273.83 145.25"/><path class="cls-1" d="M423.62,46.53c.19-12.67-.94-25.16-15.51-25.16-8.89,0-14.56,3.6-14.56,13.24,0,10.78,6.81,14.94,15.13,20.23,8.7,5.49,24.78,16.08,32.16,23.27,9.07,8.9,11.91,17.4,11.91,29.69,0,26.87-17.78,40.86-43.7,40.86-31.77,0-43.12-17.78-43.12-43.12V95.14h26.48v8.31c-.56,13.81,3.59,23.84,16.64,23.84,11.17,0,16.47-5.87,16.47-16.65,0-8.31-3.79-14-10.6-18.72-13.8-10.78-31-18.54-41.8-32.72a39.41,39.41,0,0,1-6.81-21.75C366.31,13.24,379.93,0,407.93,0c42.17,0,41,32.53,41.22,46.53Z"/><polygon class="cls-1" points="479.23 145.25 479.23 3.41 553.75 3.41 553.75 24.2 505.71 24.2 505.71 59.95 549.97 59.95 549.97 80.76 505.71 80.76 505.71 124.45 553.75 124.45 553.75 145.25 479.23 145.25"/><path class="cls-1" d="M327.92,216.76c.19-12.67-.94-25.16-15.5-25.16-8.89,0-14.57,3.6-14.57,13.24,0,10.78,6.81,14.94,15.14,20.23,8.69,5.49,24.77,16.09,32.15,23.28,9.07,8.89,11.92,17.39,11.92,29.69,0,26.86-17.79,40.85-43.7,40.85-31.78,0-43.12-17.78-43.12-43.12v-10.4h26.48v8.31c-.57,13.82,3.6,23.84,16.64,23.84,11.16,0,16.46-5.87,16.46-16.65,0-8.31-3.78-14-10.59-18.72-13.82-10.78-31-18.54-41.8-32.72a39.33,39.33,0,0,1-6.81-21.75c0-24.21,13.61-37.45,41.61-37.45,42.18,0,41,32.53,41.23,46.53Z"/><polygon class="cls-1" points="370.47 173.63 458.8 173.63 458.8 194.44 427.97 194.44 427.97 315.49 401.49 315.49 401.49 194.44 370.47 194.44 370.47 173.63"/><path class="cls-1" d="M543.53,173.64H570v98.92c0,31.39-10.21,46.34-44.82,46.34-35,0-45.21-14.95-45.21-46.34V173.64h26.49v96.65c0,13.61.93,27.23,18.91,27.23,17.21,0,18.15-13.62,18.15-27.23Z"/><path class="cls-1" d="M635.44,294.68c23.65,0,25.16-12.48,25.16-53.52,0-33.49-3.4-46.72-19.3-46.72H623.9V294.68Zm-38,20.81V173.63h55.23a32.86,32.86,0,0,1,27.42,16.08c6.06,9.83,7.75,25.54,7.75,49,0,28,0,60.34-21.75,73-5.86,3.42-13.05,3.79-19.67,3.79Z"/><polygon class="cls-1" points="712.6 315.49 712.6 173.63 787.12 173.63 787.12 194.44 739.08 194.44 739.08 230.18 783.34 230.18 783.34 250.99 739.08 250.99 739.08 294.68 787.12 294.68 787.12 315.49 712.6 315.49"/><path class="cls-1" d="M876.58,173.64h26.48V315.49H875.45L854.83,265c-7-16.83-12.67-34.05-18.91-56.36h-.38c.94,11.72,2.08,26.1,2.83,40.47.76,14.19,1.32,28.38,1.32,39.73v26.66H813.22V173.64h27.42l20.62,51.63c6.81,16.45,12.49,33.29,18.91,56.37h.38c-.94-12.87-1.88-26.67-2.65-40.3s-1.32-27.22-1.32-39.9Z"/><polygon class="cls-1" points="928.6 173.63 1016.92 173.63 1016.92 194.44 986.1 194.44 986.1 315.49 959.62 315.49 959.62 194.44 928.6 194.44 928.6 173.63"/><path class="cls-1" d="M1096.37,216.76c.19-12.67-.94-25.16-15.51-25.16-8.89,0-14.56,3.6-14.56,13.24,0,10.78,6.81,14.94,15.13,20.23,8.7,5.49,24.78,16.09,32.16,23.28,9.07,8.89,11.91,17.39,11.91,29.69,0,26.86-17.78,40.85-43.7,40.85-31.77,0-43.12-17.78-43.12-43.12v-10.4h26.48v8.31c-.56,13.82,3.6,23.84,16.64,23.84,11.17,0,16.47-5.87,16.47-16.65,0-8.31-3.79-14-10.6-18.72-13.8-10.78-31-18.54-41.8-32.72a39.41,39.41,0,0,1-6.81-21.75c0-24.21,13.62-37.45,41.62-37.45,42.17,0,41,32.53,41.22,46.53Z"/><path class="cls-1" d="M1151,216.19c8.13-1.13,12.67-6.43,12.1-18H1151V173.64h22.88v22.5c0,16.83-5.29,25.91-22.88,28.75Z"/><path class="cls-1" d="M337.38,343.87h26.48v98.92c0,31.39-10.21,46.34-44.82,46.34-35,0-45.21-14.95-45.21-46.34V343.87h26.48v96.65c0,13.62.94,27.24,18.91,27.24,17.22,0,18.16-13.62,18.16-27.24Z"/><path class="cls-1" d="M453.88,343.87h26.47V485.72h-27.6l-20.62-50.5c-7-16.83-12.67-34-18.91-56.36h-.39c.95,11.72,2.09,26.1,2.84,40.47.76,14.19,1.33,28.38,1.33,39.73v26.66H390.52V343.87h27.42l20.62,51.63c6.81,16.46,12.49,33.29,18.91,56.37h.38c-.94-12.87-1.88-26.67-2.65-40.3s-1.32-27.22-1.32-39.9Z"/><rect class="cls-1" x="511.57" y="343.87" width="26.47" height="141.85"/><path class="cls-1" d="M595.16,436.92c0,11.73,1,30.84,19.1,30.84,18.92,0,19.11-19.49,19.11-33.11V398.34c0-11.35.57-36.5-19.11-36.5-20.8,0-19.1,24.77-19.1,35.74Zm-27.24-33.48c1.14-36.12,4-63,46.34-63s45.21,26.86,46.35,63v20.25c0,37.82-2.85,65.44-46.35,65.44s-46.34-27.62-46.34-65.44Z"/><path class="cls-1" d="M749.3,343.87h26.47V485.72H748.16l-20.62-50.5c-7-16.83-12.67-34-18.91-56.36h-.37c.94,11.72,2.07,26.1,2.83,40.47.76,14.19,1.32,28.38,1.32,39.73v26.66H685.94V343.87h27.42L734,395.5c6.81,16.46,12.48,33.29,18.91,56.37h.38c-.95-12.87-1.89-26.67-2.65-40.3s-1.32-27.22-1.32-39.9Z"/><polygon class="cls-2" points="214.68 3.4 109.58 315.45 59.11 64.05 214.68 3.4"/><polygon class="cls-1" points="39.78 113.01 79.2 315.46 0 315.46 39.78 113.01"/></svg>